<mxfile host="app.diagrams.net" modified="2023-03-01T10:01:06.395Z" agent="5.0 (Windows NT 10.0; Win64; x64) AppleWebKit/537.36 (KHTML, like Gecko) Chrome/110.0.0.0 Safari/537.36" etag="MKt00e-YtpltaJFuKojx" version="20.8.23" type="github">
  <diagram name="Page-1" id="e7e014a7-5840-1c2e-5031-d8a46d1fe8dd">
    <mxGraphModel dx="880" dy="444" grid="1" gridSize="10" guides="1" tooltips="1" connect="1" arrows="1" fold="1" page="1" pageScale="1" pageWidth="1169" pageHeight="826" background="none" math="0" shadow="0">
      <root>
        <mxCell id="0" />
        <mxCell id="1" parent="0" />
        <mxCell id="2" value="pelangganÂ " style="swimlane;whiteSpace=wrap;startSize=23;" parent="1" vertex="1">
          <mxGeometry x="164.5" y="128" width="280" height="762" as="geometry" />
        </mxCell>
        <mxCell id="B1rb92VfdwMcJJiaZgfH-42" value="" style="ellipse;html=1;shape=startState;fillColor=#000000;strokeColor=#ff0000;" vertex="1" parent="2">
          <mxGeometry x="125" y="32" width="30" height="30" as="geometry" />
        </mxCell>
        <mxCell id="B1rb92VfdwMcJJiaZgfH-43" value="" style="edgeStyle=orthogonalEdgeStyle;html=1;verticalAlign=bottom;endArrow=open;endSize=8;strokeColor=#ff0000;rounded=0;" edge="1" source="B1rb92VfdwMcJJiaZgfH-42" parent="2">
          <mxGeometry relative="1" as="geometry">
            <mxPoint x="140.5" y="82" as="targetPoint" />
          </mxGeometry>
        </mxCell>
        <mxCell id="B1rb92VfdwMcJJiaZgfH-61" style="edgeStyle=orthogonalEdgeStyle;rounded=0;orthogonalLoop=1;jettySize=auto;html=1;exitX=0.5;exitY=1;exitDx=0;exitDy=0;entryX=0.5;entryY=0;entryDx=0;entryDy=0;strokeColor=#FF0000;" edge="1" parent="2" source="B1rb92VfdwMcJJiaZgfH-44" target="B1rb92VfdwMcJJiaZgfH-59">
          <mxGeometry relative="1" as="geometry">
            <Array as="points">
              <mxPoint x="126" y="122" />
              <mxPoint x="126" y="177" />
            </Array>
          </mxGeometry>
        </mxCell>
        <mxCell id="B1rb92VfdwMcJJiaZgfH-44" value="pesan Jasa" style="rounded=1;whiteSpace=wrap;html=1;arcSize=40;fontColor=#000000;fillColor=#ffffc0;strokeColor=#ff0000;" vertex="1" parent="2">
          <mxGeometry x="80" y="82" width="120" height="40" as="geometry" />
        </mxCell>
        <mxCell id="B1rb92VfdwMcJJiaZgfH-62" style="edgeStyle=orthogonalEdgeStyle;rounded=0;orthogonalLoop=1;jettySize=auto;html=1;exitX=0;exitY=0.75;exitDx=0;exitDy=0;entryX=0.608;entryY=-0.025;entryDx=0;entryDy=0;entryPerimeter=0;strokeColor=#FF0000;" edge="1" parent="2" source="B1rb92VfdwMcJJiaZgfH-55" target="B1rb92VfdwMcJJiaZgfH-59">
          <mxGeometry relative="1" as="geometry">
            <Array as="points">
              <mxPoint x="138" y="182" />
            </Array>
          </mxGeometry>
        </mxCell>
        <mxCell id="B1rb92VfdwMcJJiaZgfH-55" value="masukan email" style="rounded=1;whiteSpace=wrap;html=1;arcSize=40;fontColor=#000000;fillColor=#ffffc0;strokeColor=#ff0000;" vertex="1" parent="2">
          <mxGeometry x="145.5" y="152" width="120" height="40" as="geometry" />
        </mxCell>
        <mxCell id="B1rb92VfdwMcJJiaZgfH-59" value="masuk menu transaksi" style="rounded=1;whiteSpace=wrap;html=1;arcSize=40;fontColor=#000000;fillColor=#ffffc0;strokeColor=#ff0000;" vertex="1" parent="2">
          <mxGeometry x="65.5" y="232" width="120" height="40" as="geometry" />
        </mxCell>
        <mxCell id="B1rb92VfdwMcJJiaZgfH-71" style="edgeStyle=elbowEdgeStyle;rounded=0;orthogonalLoop=1;jettySize=auto;html=1;exitX=0.5;exitY=1;exitDx=0;exitDy=0;entryX=0.5;entryY=0;entryDx=0;entryDy=0;strokeColor=#FF0000;" edge="1" parent="2" source="B1rb92VfdwMcJJiaZgfH-64" target="B1rb92VfdwMcJJiaZgfH-69">
          <mxGeometry relative="1" as="geometry" />
        </mxCell>
        <mxCell id="B1rb92VfdwMcJJiaZgfH-64" value="tampil halaman transaksi" style="rounded=1;whiteSpace=wrap;html=1;arcSize=40;fontColor=#000000;fillColor=#ffffc0;strokeColor=#ff0000;" vertex="1" parent="2">
          <mxGeometry x="65.5" y="352" width="120" height="40" as="geometry" />
        </mxCell>
        <mxCell id="B1rb92VfdwMcJJiaZgfH-69" value="submit pembayaran" style="rounded=1;whiteSpace=wrap;html=1;arcSize=40;fontColor=#000000;fillColor=#ffffc0;strokeColor=#ff0000;" vertex="1" parent="2">
          <mxGeometry x="65.5" y="432" width="120" height="40" as="geometry" />
        </mxCell>
        <mxCell id="B1rb92VfdwMcJJiaZgfH-76" value="melakukan pembayaran sesuai metode transaksi" style="rounded=1;whiteSpace=wrap;html=1;arcSize=40;fontColor=#000000;fillColor=#ffffc0;strokeColor=#ff0000;" vertex="1" parent="2">
          <mxGeometry x="57.75" y="508" width="135.5" height="48" as="geometry" />
        </mxCell>
        <mxCell id="B1rb92VfdwMcJJiaZgfH-83" style="edgeStyle=elbowEdgeStyle;rounded=0;orthogonalLoop=1;jettySize=auto;html=1;exitX=0.5;exitY=1;exitDx=0;exitDy=0;entryX=0.5;entryY=0;entryDx=0;entryDy=0;strokeColor=#FF0000;" edge="1" parent="2" source="B1rb92VfdwMcJJiaZgfH-80" target="B1rb92VfdwMcJJiaZgfH-82">
          <mxGeometry relative="1" as="geometry" />
        </mxCell>
        <mxCell id="B1rb92VfdwMcJJiaZgfH-80" value="notifikasi pembayaran" style="rounded=1;whiteSpace=wrap;html=1;arcSize=40;fontColor=#000000;fillColor=#ffffc0;strokeColor=#ff0000;" vertex="1" parent="2">
          <mxGeometry x="73.25" y="642" width="120" height="40" as="geometry" />
        </mxCell>
        <mxCell id="B1rb92VfdwMcJJiaZgfH-82" value="" style="ellipse;html=1;shape=endState;fillColor=#000000;strokeColor=#ff0000;" vertex="1" parent="2">
          <mxGeometry x="118.25" y="712" width="30" height="30" as="geometry" />
        </mxCell>
        <mxCell id="3" value="Sistem" style="swimlane;whiteSpace=wrap" parent="1" vertex="1">
          <mxGeometry x="444.5" y="128" width="280" height="762" as="geometry" />
        </mxCell>
        <mxCell id="B1rb92VfdwMcJJiaZgfH-46" value="verifikasi login" style="rounded=1;whiteSpace=wrap;html=1;arcSize=40;fontColor=#000000;fillColor=#ffffc0;strokeColor=#ff0000;" vertex="1" parent="3">
          <mxGeometry x="80.5" y="82" width="120" height="40" as="geometry" />
        </mxCell>
        <mxCell id="B1rb92VfdwMcJJiaZgfH-47" value="" style="edgeStyle=orthogonalEdgeStyle;html=1;verticalAlign=bottom;endArrow=open;endSize=8;strokeColor=#ff0000;rounded=0;" edge="1" source="B1rb92VfdwMcJJiaZgfH-46" parent="3">
          <mxGeometry relative="1" as="geometry">
            <mxPoint x="140.5" y="152" as="targetPoint" />
          </mxGeometry>
        </mxCell>
        <mxCell id="B1rb92VfdwMcJJiaZgfH-54" style="edgeStyle=orthogonalEdgeStyle;rounded=0;orthogonalLoop=1;jettySize=auto;html=1;exitX=0.5;exitY=1;exitDx=0;exitDy=0;strokeColor=#FF0000;" edge="1" parent="3" source="B1rb92VfdwMcJJiaZgfH-49">
          <mxGeometry relative="1" as="geometry">
            <mxPoint x="140.5" y="232" as="targetPoint" />
          </mxGeometry>
        </mxCell>
        <mxCell id="B1rb92VfdwMcJJiaZgfH-49" value="benar?" style="rhombus;whiteSpace=wrap;html=1;fontColor=#000000;fillColor=#ffffc0;strokeColor=#ff0000;" vertex="1" parent="3">
          <mxGeometry x="100" y="152" width="80" height="40" as="geometry" />
        </mxCell>
        <mxCell id="B1rb92VfdwMcJJiaZgfH-52" value="tampilkan form login" style="rounded=1;whiteSpace=wrap;html=1;arcSize=40;fontColor=#000000;fillColor=#ffffc0;strokeColor=#ff0000;" vertex="1" parent="3">
          <mxGeometry x="80.5" y="235" width="120" height="40" as="geometry" />
        </mxCell>
        <mxCell id="B1rb92VfdwMcJJiaZgfH-63" value="mengarahkan ke halaman transaksi" style="rounded=1;whiteSpace=wrap;html=1;arcSize=40;fontColor=#000000;fillColor=#ffffc0;strokeColor=#ff0000;" vertex="1" parent="3">
          <mxGeometry x="80.5" y="292" width="120" height="40" as="geometry" />
        </mxCell>
        <mxCell id="B1rb92VfdwMcJJiaZgfH-75" style="edgeStyle=elbowEdgeStyle;rounded=0;orthogonalLoop=1;jettySize=auto;html=1;exitX=0.5;exitY=1;exitDx=0;exitDy=0;entryX=0.5;entryY=0;entryDx=0;entryDy=0;strokeColor=#FF0000;" edge="1" parent="3" source="B1rb92VfdwMcJJiaZgfH-72" target="B1rb92VfdwMcJJiaZgfH-74">
          <mxGeometry relative="1" as="geometry" />
        </mxCell>
        <mxCell id="B1rb92VfdwMcJJiaZgfH-72" value="simpan data pembayaran" style="rounded=1;whiteSpace=wrap;html=1;arcSize=40;fontColor=#000000;fillColor=#ffffc0;strokeColor=#ff0000;" vertex="1" parent="3">
          <mxGeometry x="80.5" y="432" width="120" height="40" as="geometry" />
        </mxCell>
        <mxCell id="B1rb92VfdwMcJJiaZgfH-74" value="data pembayaran" style="rounded=1;whiteSpace=wrap;html=1;arcSize=40;fontColor=#000000;fillColor=#ffffc0;strokeColor=#ff0000;" vertex="1" parent="3">
          <mxGeometry x="80.5" y="512" width="120" height="40" as="geometry" />
        </mxCell>
        <mxCell id="B1rb92VfdwMcJJiaZgfH-78" value="simpan data transaksi" style="rounded=1;whiteSpace=wrap;html=1;arcSize=40;fontColor=#000000;fillColor=#ffffc0;strokeColor=#ff0000;" vertex="1" parent="3">
          <mxGeometry x="80.5" y="592" width="120" height="40" as="geometry" />
        </mxCell>
        <mxCell id="B1rb92VfdwMcJJiaZgfH-48" style="edgeStyle=orthogonalEdgeStyle;rounded=0;orthogonalLoop=1;jettySize=auto;html=1;entryX=0;entryY=0.5;entryDx=0;entryDy=0;strokeColor=#FF0000;" edge="1" parent="1" source="B1rb92VfdwMcJJiaZgfH-44" target="B1rb92VfdwMcJJiaZgfH-46">
          <mxGeometry relative="1" as="geometry" />
        </mxCell>
        <mxCell id="B1rb92VfdwMcJJiaZgfH-56" style="edgeStyle=orthogonalEdgeStyle;rounded=0;orthogonalLoop=1;jettySize=auto;html=1;exitX=0;exitY=0.5;exitDx=0;exitDy=0;entryX=1;entryY=0.5;entryDx=0;entryDy=0;strokeColor=#FF0000;" edge="1" parent="1" source="B1rb92VfdwMcJJiaZgfH-52" target="B1rb92VfdwMcJJiaZgfH-55">
          <mxGeometry relative="1" as="geometry" />
        </mxCell>
        <mxCell id="B1rb92VfdwMcJJiaZgfH-60" value="" style="edgeStyle=elbowEdgeStyle;html=1;verticalAlign=bottom;endArrow=open;endSize=8;strokeColor=#ff0000;rounded=0;entryX=0;entryY=0.5;entryDx=0;entryDy=0;" edge="1" source="B1rb92VfdwMcJJiaZgfH-59" parent="1" target="B1rb92VfdwMcJJiaZgfH-63">
          <mxGeometry relative="1" as="geometry">
            <mxPoint x="290" y="450" as="targetPoint" />
          </mxGeometry>
        </mxCell>
        <mxCell id="B1rb92VfdwMcJJiaZgfH-66" style="edgeStyle=elbowEdgeStyle;rounded=0;orthogonalLoop=1;jettySize=auto;html=1;entryX=1;entryY=0.5;entryDx=0;entryDy=0;strokeColor=#FF0000;" edge="1" parent="1" source="B1rb92VfdwMcJJiaZgfH-63" target="B1rb92VfdwMcJJiaZgfH-64">
          <mxGeometry relative="1" as="geometry">
            <Array as="points">
              <mxPoint x="580" y="490" />
            </Array>
          </mxGeometry>
        </mxCell>
        <mxCell id="B1rb92VfdwMcJJiaZgfH-73" style="edgeStyle=elbowEdgeStyle;rounded=0;orthogonalLoop=1;jettySize=auto;html=1;exitX=1;exitY=0.5;exitDx=0;exitDy=0;entryX=0;entryY=0.5;entryDx=0;entryDy=0;strokeColor=#FF0000;" edge="1" parent="1" source="B1rb92VfdwMcJJiaZgfH-69" target="B1rb92VfdwMcJJiaZgfH-72">
          <mxGeometry relative="1" as="geometry" />
        </mxCell>
        <mxCell id="B1rb92VfdwMcJJiaZgfH-77" style="edgeStyle=elbowEdgeStyle;rounded=0;orthogonalLoop=1;jettySize=auto;html=1;entryX=1;entryY=0.5;entryDx=0;entryDy=0;strokeColor=#FF0000;" edge="1" parent="1" source="B1rb92VfdwMcJJiaZgfH-74" target="B1rb92VfdwMcJJiaZgfH-76">
          <mxGeometry relative="1" as="geometry" />
        </mxCell>
        <mxCell id="B1rb92VfdwMcJJiaZgfH-79" style="edgeStyle=elbowEdgeStyle;rounded=0;orthogonalLoop=1;jettySize=auto;html=1;entryX=0;entryY=0.5;entryDx=0;entryDy=0;strokeColor=#FF0000;" edge="1" parent="1" source="B1rb92VfdwMcJJiaZgfH-76" target="B1rb92VfdwMcJJiaZgfH-78">
          <mxGeometry relative="1" as="geometry">
            <Array as="points">
              <mxPoint x="280" y="720" />
            </Array>
          </mxGeometry>
        </mxCell>
        <mxCell id="B1rb92VfdwMcJJiaZgfH-81" style="edgeStyle=elbowEdgeStyle;rounded=0;orthogonalLoop=1;jettySize=auto;html=1;entryX=1;entryY=0.5;entryDx=0;entryDy=0;strokeColor=#FF0000;" edge="1" parent="1" source="B1rb92VfdwMcJJiaZgfH-78" target="B1rb92VfdwMcJJiaZgfH-80">
          <mxGeometry relative="1" as="geometry">
            <Array as="points">
              <mxPoint x="580" y="770" />
            </Array>
          </mxGeometry>
        </mxCell>
      </root>
    </mxGraphModel>
  </diagram>
</mxfile>
